<mxfile host="app.diagrams.net" modified="2023-11-17T02:41:58.765Z" agent="Mozilla/5.0 (Macintosh; Intel Mac OS X 10_15_7) AppleWebKit/537.36 (KHTML, like Gecko) Chrome/119.0.0.0 Safari/537.36 Edg/119.0.0.0" version="22.1.1" etag="oVwOxGr3FRsKJgL5u1kt" type="github">
  <diagram name="第 1 页" id="q4iggQd3TxAq7HY0btkO">
    <mxGraphModel>
      <root>
        <mxCell id="0" />
        <mxCell id="1" parent="0" />
      </root>
    </mxGraphModel>
  </diagram>
</mxfile>
